# xmcd
#
# Track frame offsets:
#	150
#	13381
#	28584
#	42608
#	56862
#	70972
#	85093
#	99352
#	111905
#	125862
#	140340
#	153850
#	168194
#	182916
#	196811
#	210513
#	224318
#	238156
#	252364
#	266302
#	279975
#	293868
#	308083
#
# Disc length: 4297 seconds
#
# Revision: 2
# Processed by: cddbd v1.5.2PL0 Copyright (c) Steve Scherf et al.
# Submitted via: EasyCDDAExtractor 11.1.0.1
#
DISCID=5610c717
DTITLE=Charlie Patton - The Best Of Charlie Patton
DYEAR=2003
DGENRE=Blues
TTITLE0=Down The Dirt Road Blues
TTITLE1=It Won't Be Long
TTITLE2=High Water Everywhere - Part 1
TTITLE3=High Sheriff Blues
TTITLE4=Mississippi Bo Weavil Blues
TTITLE5=Lord I'm Discouraged
TTITLE6=Shake It And Break It
TTITLE7=Rattlesnake Blues
TTITLE8=Screamin' And Hollerin' The Blues
TTITLE9=A Spoonful Blues
TTITLE10=Pony Blues
TTITLE11=Magnolia Blues
TTITLE12=Moon Going Down
TTITLE13=I'm Goin' Home
TTITLE14=Elder Green Blues
TTITLE15=Jim Lee Blues - Part 1
TTITLE16=Banty Rooster Blues
TTITLE17=Jersey Bull Blues
TTITLE18=I Shall Not Be Moved
TTITLE19=Going To Move To Alabama
TTITLE20=Pea Vine Blues
TTITLE21=Green River Blues
TTITLE22=Bird Nest Bound
EXTD=Classic Recordings From The 1920's and 30's\nYazoo 2069
EXTT0=
EXTT1=
EXTT2=
EXTT3=
EXTT4=
EXTT5=
EXTT6=
EXTT7=
EXTT8=
EXTT9=
EXTT10=
EXTT11=
EXTT12=
EXTT13=
EXTT14=
EXTT15=
EXTT16=
EXTT17=
EXTT18=
EXTT19=
EXTT20=
EXTT21=
EXTT22=
PLAYORDER=
